<mxfile host="app.diagrams.net" modified="2024-05-20T17:54:18.836Z" agent="Mozilla/5.0 (Windows NT 10.0; Win64; x64; rv:126.0) Gecko/20100101 Firefox/126.0" version="24.4.4" etag="jDWpRAkKXrL-dyx9mrzo" type="github">
  <diagram name="Page-1" id="Z3DuzpICTh4GMaO6C3C9">
    <mxGraphModel>
      <root>
        <mxCell id="0" />
        <mxCell id="1" parent="0" />
      </root>
    </mxGraphModel>
  </diagram>
</mxfile>
